<?xml version="1.0" encoding="UTF-8"?>
<svg width="30px" height="28px" viewBox="0 0 30 28" version="1.1" xmlns="http://www.w3.org/2000/svg" xmlns:xlink="http://www.w3.org/1999/xlink">
    <title>Group</title>
    <defs>
        <polygon id="path-1" points="0 0 12 0 12 12 0 12"></polygon>
        <polygon id="path-3" points="0 0 10 0 10 19 0 19"></polygon>
        <polygon id="path-5" points="0 0 23 0 23 19 0 19"></polygon>
    </defs>
    <g id="Page-1" stroke="none" stroke-width="1" fill="none" fill-rule="evenodd">
        <g id="Group">
            <path d="M15,7.2505 C15.5139,7.2505 16.0009,7.5889 16.0009,7.9423 C16.0009,8.2544 16.2247,8.5064 16.5004,8.5064 C16.7762,8.5064 17,8.2544 17,7.9423 C16.9302,7.0343 16.3053,6.3029 15.4996,6.1901 L15.4996,5.5621 C15.4996,5.2519 15.2757,5 15,5 C14.7243,5 14.5004,5.2519 14.5004,5.5621 L14.5004,6.1976 C13.7198,6.3555 13.1379,7.0963 13.0931,7.9856 C13.0931,9.1494 14.0313,9.6175 14.7851,9.9935 C15.4852,10.3432 15.906,10.5858 15.906,11.0144 C15.906,11.413 15.4906,11.7514 15,11.7514 C14.4861,11.7514 13.9991,11.413 13.9991,11.0577 C13.9991,10.7474 13.7753,10.4955 13.4996,10.4955 C13.2238,10.4955 13,10.7474 13,11.0577 C13.0698,11.9676 13.6947,12.6971 14.5004,12.8118 L14.5004,13.4379 C14.5004,13.7481 14.7243,14 15,14 C15.2757,14 15.4996,13.7481 15.4996,13.4379 L15.4996,12.8024 C16.2802,12.6463 16.8621,11.9056 16.9051,11.0144 C16.9051,9.8243 15.9561,9.3487 15.1916,8.967 C14.5076,8.6248 14.0904,8.3898 14.0904,7.9856 C14.0904,7.5832 14.5094,7.2505 15,7.2505 Z" id="Path" fill="#223675"></path>
            <g id="Clipped" transform="translate(9.000000, 16.000000)">
                <mask id="mask-2" fill="white">
                    <use xlink:href="#path-1"></use>
                </mask>
                <g id="Path"></g>
                <path d="M2.1336,4.6045 L5.9991,1.3058 L9.8664,4.6045 L8.5917,4.6045 C8.2801,4.6045 8.0205,4.8216 7.9901,5.1053 L7.401,10.8977 L4.6348,10.8977 L4.044,5.1053 C4.0154,4.8216 3.7557,4.6045 3.4442,4.6045 L2.1336,4.6045 Z M5.9991,0 C5.8523,0 5.7037,0.0496 5.5873,0.1487 L0.191,4.7532 C0.0102,4.9071 -0.0489,5.1481 0.0424,5.3583 C0.1337,5.5685 0.3557,5.707 0.6046,5.707 L2.8946,5.707 L3.4836,11.4994 C3.5105,11.7831 3.7719,12.0002 4.0834,12.0002 L7.9507,12.0002 C8.264,12.0002 8.5254,11.7831 8.5523,11.4994 L9.1413,5.707 L11.3954,5.707 C11.6443,5.707 11.8663,5.5685 11.9576,5.3583 C12.0489,5.1481 11.9899,4.9071 11.8072,4.7532 L6.4109,0.1487 C6.2963,0.0496 6.1477,0 5.9991,0 Z" id="Shape" fill="#223675" mask="url(#mask-2)"></path>
            </g>
            <path d="M11.3937,16 L6.1778,16 C5.8417,16 5.5714,15.7414 5.5714,15.4208 C5.5714,14.4078 4.6893,13.5842 3.6063,13.5842 C3.2703,13.5842 3,13.3238 3,13.005 L3,6.0286 C3,5.7098 3.2703,5.4495 3.6063,5.4495 C4.7076,5.4495 5.5714,4.6277 5.5714,3.5774 C5.5714,3.2586 5.8417,3 6.1778,3 L11.3937,3 C11.7297,3 12,3.2586 12,3.5774 C12,3.898 11.7297,4.1565 11.3937,4.1565 L6.7275,4.1565 C6.4809,5.3644 5.4801,6.3173 4.2127,6.5511 L4.2127,12.4808 C5.4783,12.7128 6.4773,13.6515 6.7256,14.8435 L11.3937,14.8435 C11.7297,14.8435 12,15.102 12,15.4208 C12,15.7414 11.7297,16 11.3937,16 Z" id="Path" fill="#223675"></path>
            <path d="M24.8441,16 L19.6088,16 C19.2714,16 19,15.7414 19,15.4208 C19,15.102 19.2714,14.8435 19.6088,14.8435 L24.294,14.8435 C24.5416,13.655 25.53,12.7163 26.7806,12.4826 L26.7806,6.5511 C25.5263,6.3138 24.5361,5.3609 24.2922,4.1565 L19.6088,4.1565 C19.2714,4.1565 19,3.898 19,3.5774 C19,3.2586 19.2714,3 19.6088,3 L24.8441,3 C25.1815,3 25.4548,3.2586 25.4548,3.5774 C25.4548,4.6099 26.324,5.4495 27.3912,5.4495 C27.7286,5.4495 28,5.7098 28,6.0286 L28,13.005 C28,13.3238 27.7286,13.5842 27.3912,13.5842 C26.324,13.5842 25.4548,14.4078 25.4548,15.4208 C25.4548,15.7414 25.1815,16 24.8441,16 Z" id="Path" fill="#223675"></path>
            <path d="M7.4847,9.638 L6.5153,9.638 C6.2302,9.638 6,9.352 6,9 C6,8.648 6.2302,8.362 6.5153,8.362 L7.4847,8.362 C7.7698,8.362 8,8.648 8,9 C8,9.352 7.7698,9.638 7.4847,9.638 Z" id="Path" fill="#223675"></path>
            <path d="M23.4859,9.638 L22.5157,9.638 C22.2304,9.638 22,9.352 22,9 C22,8.648 22.2304,8.362 22.5157,8.362 L23.4859,8.362 C23.7712,8.362 24,8.648 24,9 C24,9.352 23.7712,9.638 23.4859,9.638 Z" id="Path" fill="#223675"></path>
            <g id="Clipped">
                <mask id="mask-4" fill="white">
                    <use xlink:href="#path-3"></use>
                </mask>
                <g id="Path"></g>
                <path d="M9.4172,19 L0.5826,19 C0.261,19 -0.0002,18.7404 -0.0002,18.4209 L-0.0002,0.5809 C-0.0002,0.2596 0.261,0 0.5826,0 L5.8048,0 C6.1264,0 6.3877,0.2596 6.3877,0.5809 C6.3877,0.9004 6.1264,1.16 5.8048,1.16 L1.1673,1.16 L1.1673,17.8418 L9.4172,17.8418 C9.7388,17.8418 10.0001,18.0996 10.0001,18.4209 C10.0001,18.7404 9.7388,19 9.4172,19 Z" id="Path" fill="#223675" mask="url(#mask-4)"></path>
            </g>
            <g id="Clipped" transform="translate(7.000000, 0.000000)">
                <mask id="mask-6" fill="white">
                    <use xlink:href="#path-5"></use>
                </mask>
                <g id="Path"></g>
                <path d="M22.4241,19 L14.0737,19 C13.7541,19 13.4978,18.7404 13.4978,18.4209 C13.4978,18.0996 13.7541,17.8418 14.0737,17.8418 L21.8481,17.8418 L21.8481,1.1599 L0.5759,1.1599 C0.2564,1.1599 0,0.9003 0,0.5808 C0,0.2594 0.2564,-0.0002 0.5759,-0.0002 L22.4241,-0.0002 C22.7418,-0.0002 23,0.2594 23,0.5808 L23,18.4209 C23,18.7404 22.7418,19 22.4241,19 Z" id="Path" fill="#223675" mask="url(#mask-6)"></path>
            </g>
        </g>
    </g>
</svg>