<?xml version="1.0" encoding="UTF-8"?>
<svg width="131px" height="120px" viewBox="0 0 131 120" version="1.1" xmlns="http://www.w3.org/2000/svg" xmlns:xlink="http://www.w3.org/1999/xlink">
    <title>Group</title>
    <g id="Page-1" stroke="none" stroke-width="1" fill="none" fill-rule="evenodd">
        <g id="Group" fill="#223675">
            <path d="M66.0431806,28.0532137 C68.1440784,28.0532137 70.2443917,29.4314903 70.2443917,30.8098265 C70.1859523,31.1199611 70.195887,31.4394612 70.2724426,31.7453008 C70.3495827,32.0512 70.4915905,32.3359822 70.6885314,32.5793654 C70.8854723,32.8227486 71.1326711,33.0185885 71.412596,33.1530458 C71.6925209,33.2875627 71.9981592,33.3572968 72.3073038,33.3572968 C72.6170328,33.3572968 72.9220867,33.2875627 73.2020116,33.1530458 C73.4819365,33.0185885 73.7291353,32.8227486 73.9266606,32.5793654 C74.1236015,32.3359822 74.2656093,32.0512 74.342165,31.7453008 C74.419305,31.4394612 74.4286553,31.1199611 74.3702159,30.8098265 C74.275544,29.078525 73.6081656,27.4313339 72.4773625,26.137645 C71.3459751,24.843956 69.8183682,23.9804229 68.1440784,23.6883631 L68.1440784,21.1611748 C68.1540131,20.8695325 68.1072615,20.5787851 68.0073301,20.3053966 C67.9073986,20.0320677 67.7554561,19.7814666 67.5602684,19.5680887 C67.3650807,19.3547705 67.1307385,19.1827917 66.870683,19.0619352 C66.6100432,18.9411384 66.3289495,18.8739098 66.0431806,18.864 C65.7544898,18.8632319 65.4681366,18.9232426 65.2034059,19.0404602 C64.9380909,19.1576182 64.699658,19.3295971 64.5021327,19.5452417 C64.3051918,19.7608267 64.1538337,20.0156632 64.0574086,20.2937046 C63.9609835,20.5718057 63.9224135,20.8670271 63.9428673,21.1611748 L63.9428673,23.7647783 C62.2995503,24.124365 60.8222014,25.0369923 59.7475002,26.3561529 C58.6726821,27.6753136 58.0630419,29.3245926 58.0163487,31.0395492 C58.0163487,35.7873108 61.9921589,37.6251521 65.1432133,39.2332706 C68.2936833,40.8413295 69.794408,41.6072111 69.794408,43.3684582 C69.6640881,44.2624142 69.2018321,45.0707088 68.5034809,45.6266127 C67.8051296,46.1824569 66.9244473,46.4432587 66.0431806,46.3547937 C63.8680648,46.3547937 61.842554,44.9764575 61.842554,43.5215271 C61.8437227,42.9378251 61.6269124,42.3756577 61.2371214,41.9489616 C60.846746,41.5223252 60.3126095,41.2630147 59.7416562,41.2240615 C59.4558874,41.2339639 59.1750274,41.3014311 58.9147966,41.4222279 C58.6545658,41.5430844 58.4201068,41.7150632 58.2249775,41.9284411 C58.0299067,42.1417593 57.878081,42.3923604 57.7779158,42.6657489 C57.6777507,42.9390778 57.6312913,43.2298252 57.6413429,43.5215271 C57.7394627,45.2638644 58.4175939,46.9198244 59.5634159,48.2149451 C60.7094133,49.5101254 62.254552,50.366679 63.9428673,50.6429905 L63.9428673,53.246594 C63.9329326,53.5382363 63.9790997,53.8292223 64.0796156,54.1026108 C64.179547,54.3759397 64.3314895,54.6263022 64.5266773,54.8396801 C64.721865,55.0529983 64.9562071,55.2249771 65.2162626,55.3458336 C65.4763181,55.4666304 65.7574118,55.5340976 66.0431806,55.544 C66.6141339,55.5051064 67.1482704,55.2459749 67.5386458,54.8193385 C67.9284368,54.3926425 68.1452471,53.8302364 68.1440784,53.246594 L68.1440784,50.6429905 C69.7733698,50.2684906 71.2337713,49.3495402 72.2938627,48.0317515 C73.3539541,46.7139628 73.9523739,45.0729159 73.9950347,43.3684582 C73.9950347,38.467568 70.0193999,36.5529537 66.4937487,35.0214293 C62.9675131,33.4899048 61.9173564,32.6476678 61.9173564,31.0395492 C62.0476764,30.1309187 62.5210358,29.3102759 63.2351657,28.7524035 C63.94988,28.1945907 64.8498473,27.9436913 65.7433863,28.0532137" id="Path"></path>
            <path d="M66.4162976,119.468326 C65.7758005,119.47485 65.1526141,119.259567 64.6541844,118.85984 L41.6660084,98.3041434 C41.2981852,97.9779566 41.0415685,97.546204 40.9317349,97.0687852 C40.8219013,96.5913664 40.864223,96.0920041 41.0529697,95.6394941 C41.2479244,95.1709713 41.5769477,94.7700581 41.9992102,94.4859791 C42.4214727,94.2013071 42.9184101,94.0465166 43.4283604,94.0405859 L53.2365621,94.0405859 L55.7652423,68.3080093 C55.8406933,67.6758001 56.148108,67.0928154 56.6287495,66.6711449 C57.1093909,66.2500674 57.729533,66.0199575 58.3705674,66.0240538 L74.9218367,66.0240538 C75.5545739,66.0217367 76.1652249,66.254812 76.6332116,66.6776686 C77.1011983,67.1005253 77.3930931,67.6817308 77.4503976,68.3080093 L79.9795554,94.0405859 L89.634169,94.0405859 C90.1439403,94.0465166 90.6411762,94.2013071 91.0631999,94.4859791 C91.4858206,94.7700581 91.8147245,95.1709713 92.0099179,95.6394941 C92.2239294,96.0872596 92.2791297,96.5937386 92.1681022,97.0770881 C92.0570747,97.5604376 91.7848784,97.9927833 91.3968792,98.3041434 L68.4088227,118.85984 C67.8363746,119.287441 67.13141,119.503317 66.4162976,119.468326 Z M49.8649685,98.9891356 L66.4162976,113.682366 L82.9677461,98.9891356 L77.4503976,98.9891356 C76.8295989,98.9938801 76.2290955,98.77148 75.7628996,98.3640431 C75.2967036,97.9571993 74.9970489,97.3931927 74.9218367,96.7811478 L72.3932759,70.9726586 L60.5163222,70.9726586 L57.9874032,96.7811478 C57.9121911,97.3931927 57.6128945,97.9571993 57.1465791,98.3640431 C56.6802638,98.77148 56.0795814,98.9938801 55.4588424,98.9891356 L49.8649685,98.9891356 Z" id="Shape"></path>
            <path d="M46.3208376,67.7732047 L24.7173646,67.7732047 C24.3888144,67.7834082 24.0616224,67.7275891 23.7542709,67.6093484 C23.4468604,67.4911078 23.1654315,67.3122464 22.9261048,67.0835678 C22.6867191,66.854289 22.4941003,66.5799948 22.3592318,66.27509 C22.2243632,65.9701853 22.1499611,65.6418725 22.140159,65.3075576 C22.0418419,63.2026344 21.1392737,61.2195531 19.6244826,59.7808588 C18.1096916,58.3418043 16.1022524,57.5604559 14.0293275,57.6029505 C13.7008364,57.6029505 13.375593,57.5372279 13.0721387,57.409444 C12.7686255,57.2816601 12.4929244,57.0943958 12.2606245,56.8582746 C12.0283247,56.6222135 11.8440909,56.3419172 11.718375,56.0334713 C11.5926591,55.7249653 11.528,55.3943717 11.528,55.060477 L11.528,24.703427 C11.528,24.3730735 11.5929544,24.0460211 11.719556,23.7417166 C11.8461577,23.4374721 12.0316905,23.1621575 12.2649942,22.9321584 C12.4983569,22.7022194 12.7748256,22.5221576 13.0779256,22.4028966 C13.3810255,22.2836356 13.7044974,22.2275163 14.0293275,22.2378399 C15.0908563,22.2479834 16.1439411,22.0443334 17.1275249,21.638474 C18.1111087,21.2326145 19.0058824,20.6325283 19.7600007,19.8730874 C20.5141781,19.1137065 21.1128196,18.209916 21.5213816,17.2139938 C21.9298845,16.2180716 22.140218,15.1497646 22.140159,14.0707139 C22.1598814,13.3894198 22.4400112,12.7426976 22.9212628,12.2679945 C23.4024553,11.7932314 24.046801,11.528 24.7173646,11.528 L46.3208376,11.528 C46.6493287,11.528 46.9745722,11.5937228 47.2780264,11.7215067 C47.5815397,11.8492906 47.8572407,12.0367951 48.0895406,12.2729162 C48.3218404,12.5089773 48.5060742,12.7892736 48.6317901,13.0977196 C48.757506,13.4062256 48.8222831,13.7368192 48.8222831,14.0707139 C48.8224012,14.4010674 48.7572108,14.7281798 48.6306091,15.0324243 C48.5040075,15.3366688 48.3184746,15.6119834 48.0851709,15.8419824 C47.8518082,16.0719815 47.5754576,16.2517432 47.2723577,16.3710042 C46.9692577,16.4903252 46.6456677,16.5466245 46.3208376,16.536301 L26.9914113,16.536301 C26.466227,19.1402356 25.1912941,21.5265355 23.3287028,23.3923366 C21.4661705,25.2580776 19.100007,26.5189908 16.530832,27.0147611 L16.530832,52.8260293 C19.0739072,53.2960507 21.423596,54.5194511 23.2847701,56.3426375 C25.1458852,58.1658839 26.4355214,60.5077085 26.9914113,63.0735901 L46.3208376,63.0735901 C46.6805068,63.0087678 47.0496238,63.0255736 47.4023842,63.1216066 C47.7551445,63.2176396 48.0829861,63.3910992 48.3627616,63.6299812 C48.642478,63.8682631 48.8673377,64.1665656 49.0216925,64.5026811 C49.1759882,64.8393968 49.256,65.2061228 49.256,65.5776504 C49.256,65.9485778 49.1759882,66.3153038 49.0216925,66.6520195 C48.8673377,66.988135 48.642478,67.2864375 48.3627616,67.5253196 C48.0829861,67.7636014 47.7551445,67.937061 47.4023842,68.033094 C47.0496238,68.129127 46.6805068,68.1459328 46.3208376,68.0817107 L46.3208376,67.7732047 Z" id="Path"></path>
            <path d="M105.359665,68.0814864 L83.6366587,68.0814864 C83.2763244,68.1457957 82.9065233,68.1295681 82.5526976,68.0328036 C82.1994635,67.93664 81.8710801,67.7629446 81.5906229,67.5237377 C81.3107574,67.2851319 81.0853266,66.9864239 80.930306,66.6498514 C80.775877,66.312678 80.696,65.9454534 80.696,65.5740217 C80.696,65.2019889 80.775877,64.8347643 80.930306,64.4981919 C81.0853266,64.1610184 81.3107574,63.8623104 81.5906229,63.6237046 C81.8710801,63.3844977 82.1994635,63.2108023 82.5526976,63.1146387 C82.9065233,63.0184752 83.2763244,63.0016466 83.6366587,63.066557 L103.081099,63.066557 C103.594678,60.5152176 104.843719,58.1770609 106.669649,56.3496528 C108.495579,54.5222448 110.816155,53.2882259 113.334945,52.8048839 L113.334945,27.0358157 C110.793671,26.5173139 108.461853,25.2427862 106.635923,23.3742682 C104.810585,21.5058103 103.572786,19.1279861 103.081099,16.5431097 L83.6366587,16.5431097 C83.3112337,16.5534473 82.986992,16.4970113 82.6834593,16.3775882 C82.3799265,16.2581651 82.1024277,16.0780988 81.8687134,15.8478472 C81.6349991,15.6175355 81.449211,15.3418466 81.3225911,15.0371884 C81.1953795,14.7324702 81.1302945,14.4049732 81.1302945,14.0741705 C81.1302945,13.3989221 81.3947762,12.7513807 81.8645716,12.2738686 C82.334367,11.7964165 82.9722,11.528 83.6366587,11.528 L105.359665,11.528 C106.024716,11.528 106.661957,11.7964165 107.132344,12.2738686 C107.602139,12.7513807 107.866029,13.3989221 107.866029,14.0741705 C107.866029,16.2431395 108.714501,18.3231572 110.224473,19.8568457 C111.734445,21.3905943 113.782256,22.25234 115.917044,22.25234 C116.243061,22.2420024 116.567302,22.298198 116.870835,22.4176812 C117.174368,22.5371043 117.451275,22.7173509 117.685581,22.9476626 C117.919295,23.1779743 118.105083,23.4536632 118.231703,23.7583214 C118.358915,24.0629795 118.424,24.3904765 118.424,24.7213393 L118.424,55.1196608 C118.424,55.7949093 118.159518,56.4424507 117.689723,56.9199027 C117.219927,57.3974149 116.582094,57.665591 115.917044,57.665591 C114.882193,57.6023634 113.845566,57.7552635 112.870474,58.1146147 C111.895974,58.4739058 111.003718,59.0321352 110.249324,59.7549245 C109.49493,60.4779542 108.894372,61.3500375 108.484929,62.3176833 C108.074893,63.284728 107.864254,64.3275016 107.866029,65.3810935 C107.898572,65.7308885 107.857746,66.0836885 107.745326,66.4154528 C107.632907,66.7478181 107.452444,67.0519353 107.215179,67.3073697 C106.977915,67.5634052 106.689174,67.7647477 106.369666,67.8981746 C106.049566,68.0310005 105.705207,68.0941078 105.359665,68.0814864 Z" id="Path"></path>
            <path d="M33.2003092,41.3582909 L28.6316908,41.3582909 C28.3159189,41.3691063 28.0012951,41.3103135 27.7067047,41.1853709 C27.412057,41.0604284 27.1434127,40.8718512 26.9165575,40.6308951 C26.6897596,40.3899389 26.5094006,40.1015084 26.3863293,39.7827696 C26.2632581,39.463968 26.1998281,39.1213349 26.2,38.7752434 C26.2191728,38.0828717 26.4838564,37.4259644 26.9377964,36.9437376 C27.3917939,36.4615109 27.9993434,36.192133 28.6316908,36.1924474 L33.2003092,36.1924474 C33.8326566,36.192133 34.4403209,36.4615109 34.8943184,36.9437376 C35.3482584,37.4259644 35.6128272,38.0828717 35.632,38.7752434 C35.6321719,39.1213349 35.5689142,39.463968 35.4457855,39.7827696 C35.3227142,40.1015084 35.1423552,40.3899389 34.9155574,40.6308951 C34.6887021,40.8718512 34.4200004,41.0604284 34.1253527,41.1853709 C33.8307049,41.3103135 33.5160811,41.3691063 33.2003092,41.3582909 Z" id="Path"></path>
            <path d="M99.2797757,41.3582909 L94.6748649,41.3582909 C94.3560678,41.3691063 94.039585,41.3103135 93.7421954,41.1853709 C93.4453843,41.0604284 93.1746093,40.8718512 92.9460706,40.6308951 C92.7169533,40.3899389 92.5352795,40.1015084 92.4114635,39.7827696 C92.287069,39.463968 92.2234253,39.1213349 92.224,38.7752434 C92.243097,38.0828717 92.509822,37.4259644 92.967478,36.9437376 C93.4245555,36.4615109 94.0372707,36.192133 94.6748649,36.1924474 L99.2797757,36.1924474 C99.9098483,36.1924474 100.514463,36.4645292 100.959969,36.9488938 C101.406054,37.4333213 101.656,38.0901658 101.656,38.7752434 C101.656,39.460321 101.406054,40.117417 100.959969,40.6018445 C100.514463,41.0862092 99.9098483,41.3582909 99.2797757,41.3582909 Z" id="Path"></path>
            <path d="M39.4675992,80.696 L2.45229928,80.696 C1.80188981,80.696 1.17813622,80.4360254 0.718228243,79.9737149 C0.258324444,79.5114044 0,78.8839829 0,78.2295434 L0,2.46640858 C0,1.81229324 0.258324444,1.18485982 0.718228243,0.722327156 C1.17813622,0.259798696 1.80188981,0 2.45229928,0 L24.3702812,0 C25.0206489,0 25.6444502,0.259798696 26.1043164,0.722327156 C26.5642423,1.18485982 26.822682,1.81229324 26.822682,2.46640858 C26.822682,3.12052992 26.5642423,3.74772919 26.1043164,4.21025585 C25.6444502,4.67278851 25.0206489,4.93258901 24.3702812,4.93258901 L4.904712,4.93258901 L4.904712,75.7630868 L39.4675992,75.7630868 C40.1180266,75.7630868 40.7417683,76.0230614 41.2016941,76.4859723 C41.6615603,76.9482828 41.92,77.5757042 41.92,78.2295434 C41.92,78.8839829 41.6615603,79.5114044 41.2016941,79.9737149 C40.7417683,80.4360254 40.1180266,80.696 39.4675992,80.696 Z" id="Path" fill-rule="nonzero"></path>
            <path d="M128.552412,80.696 L93.13122,80.696 C92.4881844,80.6767871 91.8767344,80.4108084 91.4214246,79.9521004 C90.9667108,79.4939927 90.7027026,78.8773785 90.6836321,78.2295434 C90.6836321,77.5757042 90.9410847,76.9482828 91.4005662,76.4859723 C91.8594517,76.0230614 92.4822248,75.7630868 93.13122,75.7630868 L125.797907,75.7630868 L125.797907,4.93258901 L35.9840647,4.93258901 C35.3347715,4.93258901 34.7121175,4.67278851 34.2529937,4.21025585 C33.7938698,3.74772919 33.536,3.12052992 33.536,2.46640858 C33.536,1.81229324 33.7938698,1.18485982 34.2529937,0.722327156 C34.7121175,0.259798696 35.3347715,0 35.9840647,0 L128.552412,0 C129.201407,0 129.82418,0.259798696 130.283066,0.722327156 C130.742547,1.18485982 131,1.81229324 131,2.46640858 L131,78.2295434 C130.980929,78.8773785 130.716921,79.4939927 130.262207,79.9521004 C129.806898,80.4108084 129.195448,80.6767871 128.552412,80.696 Z" id="Path" fill-rule="nonzero"></path>
        </g>
    </g>
</svg>